<svg width="16" height="16" viewBox="0 0 16 16" fill="none" xmlns="http://www.w3.org/2000/svg">
<path fill-rule="evenodd" clip-rule="evenodd" d="M0 8C0 12.4183 3.58172 16 8 16C12.4161 15.9948 15.9948 12.4161 16 8C16 3.58172 12.4183 0 8 0C3.58172 0 0 3.58172 0 8ZM1.24902 8C1.24902 4.27154 4.27154 1.24902 8 1.24902C11.7263 1.25418 14.7458 4.27368 14.751 8C14.751 11.7285 11.7285 14.751 8 14.751C4.27154 14.751 1.24902 11.7285 1.24902 8Z" fill="#5329FF"/>
<path d="M11.3318 8.98675H8C7.65509 8.98675 7.37549 8.70714 7.37549 8.36223V3.81891C7.37549 3.474 7.65509 3.1944 8 3.1944C8.34491 3.1944 8.62451 3.474 8.62451 3.81891V7.73772H11.3318C11.5549 7.73772 11.7611 7.85675 11.8726 8.04998C11.9842 8.2432 11.9842 8.48127 11.8726 8.67449C11.7611 8.86772 11.5549 8.98675 11.3318 8.98675Z" fill="#5329FF"/>
</svg>
